<?xml version="1.0" encoding="UTF-8" standalone="no"?>
<svg
   xmlns:dc="http://purl.org/dc/elements/1.1/"
   xmlns:cc="http://creativecommons.org/ns#"
   xmlns:rdf="http://www.w3.org/1999/02/22-rdf-syntax-ns#"
   xmlns:svg="http://www.w3.org/2000/svg"
   xmlns="http://www.w3.org/2000/svg"
   xmlns:sodipodi="http://sodipodi.sourceforge.net/DTD/sodipodi-0.dtd"
   xmlns:inkscape="http://www.inkscape.org/namespaces/inkscape"
   fill-opacity="1"
   color-rendering="auto"
   color-interpolation="auto"
   text-rendering="auto"
   stroke="black"
   stroke-linecap="square"
   width="180"
   stroke-miterlimit="10"
   shape-rendering="auto"
   stroke-opacity="1"
   fill="black"
   stroke-dasharray="none"
   font-weight="normal"
   stroke-width="1"
   height="180"
   font-family="'Dialog'"
   font-style="normal"
   stroke-linejoin="miter"
   font-size="12px"
   stroke-dashoffset="0"
   image-rendering="auto"
   version="1.1"
   id="svg3833"
   sodipodi:docname="bn.svg"
   inkscape:version="0.92.4 (unknown)"
   inkscape:export-filename="/home/behrouz/projects/covid-19-model/docs/images/opengm_quickstart_bn.png"
   inkscape:export-xdpi="300"
   inkscape:export-ydpi="300">
  <metadata
     id="metadata3837">
    <rdf:RDF>
      <cc:Work
         rdf:about="">
        <dc:format>image/svg+xml</dc:format>
        <dc:type
           rdf:resource="http://purl.org/dc/dcmitype/StillImage" />
      </cc:Work>
    </rdf:RDF>
  </metadata>
  <sodipodi:namedview
     pagecolor="#ffffff"
     bordercolor="#666666"
     borderopacity="1"
     objecttolerance="10"
     gridtolerance="10"
     guidetolerance="10"
     inkscape:pageopacity="0"
     inkscape:pageshadow="2"
     inkscape:window-width="1375"
     inkscape:window-height="876"
     id="namedview3835"
     showgrid="false"
     inkscape:zoom="4.0777778"
     inkscape:cx="48.678474"
     inkscape:cy="90"
     inkscape:window-x="65"
     inkscape:window-y="24"
     inkscape:window-maximized="1"
     inkscape:current-layer="svg3833" />
  <!--Generated by ySVG 2.5-->
  <defs
     id="genericDefs" />
  <g
     id="g3831">
    <defs
       id="defs1">
      <clipPath
         clipPathUnits="userSpaceOnUse"
         id="clipPath1">
        <path
           d="M0 0 L180 0 L180 180 L0 180 L0 0 Z"
           id="path3796" />
      </clipPath>
      <clipPath
         clipPathUnits="userSpaceOnUse"
         id="clipPath2">
        <path
           d="M390 60 L570 60 L570 240 L390 240 L390 60 Z"
           id="path3799" />
      </clipPath>
    </defs>
    <g
       text-rendering="geometricPrecision"
       stroke-miterlimit="1.45"
       shape-rendering="geometricPrecision"
       transform="matrix(1,0,0,1,-390,-60)"
       stroke-linecap="butt"
       id="g3805">
      <circle
         fill="none"
         r="15"
         clip-path="url(#clipPath2)"
         cx="480"
         cy="90"
         id="circle3803" />
    </g>
    <g
       text-rendering="geometricPrecision"
       stroke-miterlimit="1.45"
       shape-rendering="geometricPrecision"
       transform="matrix(1,0,0,1,-390,-60)"
       stroke-linecap="butt"
       id="g3829">
      <circle
         fill="none"
         r="15"
         clip-path="url(#clipPath2)"
         cx="420"
         cy="150"
         id="circle3807" />
      <circle
         fill="none"
         r="15"
         clip-path="url(#clipPath2)"
         cx="540"
         cy="150"
         id="circle3809" />
      <circle
         fill="none"
         r="15"
         clip-path="url(#clipPath2)"
         cx="480"
         cy="210"
         id="circle3811" />
      <path
         fill="none"
         d="M469.3934 100.6066 L436.2635 133.7365"
         clip-path="url(#clipPath2)"
         id="path3813" />
      <path
         d="M430.6066 139.3934 L442.6274 134.4436 L436.9706 133.0294 L435.5563 127.3726 Z"
         clip-path="url(#clipPath2)"
         stroke="none"
         id="path3815" />
      <path
         fill="none"
         d="M490.6066 100.6066 L523.7366 133.7365"
         clip-path="url(#clipPath2)"
         id="path3817" />
      <path
         d="M529.3934 139.3934 L524.4437 127.3726 L523.0294 133.0294 L517.3726 134.4436 Z"
         clip-path="url(#clipPath2)"
         stroke="none"
         id="path3819" />
      <path
         fill="none"
         d="M430.6066 160.6066 L463.7365 193.7365"
         clip-path="url(#clipPath2)"
         id="path3821" />
      <path
         d="M469.3934 199.3934 L464.4437 187.3726 L463.0294 193.0294 L457.3726 194.4436 Z"
         clip-path="url(#clipPath2)"
         stroke="none"
         id="path3823" />
      <path
         fill="none"
         d="M529.3934 160.6066 L496.2635 193.7365"
         clip-path="url(#clipPath2)"
         id="path3825" />
      <path
         d="M490.6066 199.3934 L502.6274 194.4436 L496.9706 193.0294 L495.5563 187.3726 Z"
         clip-path="url(#clipPath2)"
         stroke="none"
         id="path3827" />
    </g>
  </g>
  <g
     id="g3867"
     transform="matrix(1.3832898,0,0,1.3832898,-20.232506,-7.8926938)">
    <g
       word-spacing="normal"
       letter-spacing="normal"
       font-size-adjust="none"
       font-stretch="normal"
       font-weight="normal"
       font-variant="normal"
       font-style="normal"
       stroke-miterlimit="10.433"
       xml:space="preserve"
       transform="matrix(0.25714286,0,0,-0.25714286,-45,135)"
       id="content"
       style="font-style:normal;font-variant:normal;font-weight:normal;font-stretch:normal;letter-spacing:normal;word-spacing:normal;text-anchor:start;fill:none;fill-opacity:1;fill-rule:evenodd;stroke:#000000;stroke-linecap:butt;stroke-linejoin:miter;stroke-miterlimit:10.43299961;stroke-dasharray:none;stroke-dashoffset:0;stroke-opacity:1"><path
         id="path3862"
         d="m 479.68,426.68 -4.18,9.91 c -0.15,0.41 -0.25,0.59 -0.25,0.64 0,0.31 0.85,1.25 2.94,1.45 0.5,0.05 1,0.1 1,0.96 0,0.59 -0.61,0.59 -0.75,0.59 -2.05,0 -4.19,-0.16 -6.28,-0.16 -1.25,0 -4.33,0.16 -5.58,0.16 -0.29,0 -0.9,0 -0.9,-1 0,-0.55 0.5,-0.55 1.15,-0.55 2.99,0 3.28,-0.5 3.74,-1.59 l 5.87,-13.91 -10.51,-11.31 -0.64,-0.55 c -2.44,-2.64 -4.79,-3.43 -7.33,-3.57 -0.64,-0.05 -1.1,-0.05 -1.1,-1 0,-0.05 0,-0.55 0.66,-0.55 1.48,0 3.12,0.16 4.67,0.16 1.85,0 3.8,-0.16 5.58,-0.16 0.31,0 0.91,0 0.91,1 0,0.5 -0.5,0.55 -0.6,0.55 -0.45,0.04 -2,0.14 -2,1.54 0,0.8 0.75,1.6 1.35,2.24 l 5.07,5.39 4.49,4.87 5.03,-11.9 c 0.2,-0.55 0.25,-0.6 0.25,-0.71 0,-0.39 -0.94,-1.23 -2.89,-1.43 -0.55,-0.05 -0.99,-0.11 -0.99,-0.96 0,-0.59 0.55,-0.59 0.74,-0.59 1.41,0 4.89,0.16 6.28,0.16 1.25,0 4.28,-0.16 5.53,-0.16 0.35,0 0.95,0 0.95,0.95 0,0.6 -0.5,0.6 -0.9,0.6 -3.33,0.04 -3.44,0.2 -4.28,2.18 -1.94,4.64 -5.28,12.41 -6.42,15.39 3.39,3.5 8.6,9.43 10.2,10.82 1.45,1.2 3.34,2.39 6.33,2.54 0.65,0.05 1.09,0.05 1.09,1 0,0.05 0,0.55 -0.64,0.55 -1.5,0 -3.14,-0.16 -4.69,-0.16 -1.84,0 -3.73,0.16 -5.53,0.16 -0.3,0 -0.94,0 -0.94,-1 0,-0.34 0.25,-0.5 0.6,-0.55 0.45,-0.04 2,-0.15 2,-1.54 0,-0.71 -0.55,-1.35 -0.96,-1.8 z"
         inkscape:connector-curvature="0"
         style="fill:#000000;stroke-width:0" /><path
         id="path3864"
         d="m 514.78,409.87 v 0.71 l -0.02,0.68 -0.03,0.66 -0.04,0.64 -0.06,0.62 -0.07,0.6 -0.09,0.57 -0.11,0.56 -0.13,0.55 -0.15,0.53 -0.17,0.51 -0.19,0.5 -0.21,0.49 -0.24,0.48 -0.26,0.47 -0.14,0.23 -0.15,0.23 c -1.08,1.61 -3.23,3 -6.03,3 v -0.98 c 1.89,0 3.7,-1.14 4.33,-3.17 0.56,-1.88 0.59,-4.39 0.59,-7.43 0,-2.57 0,-5.15 -0.45,-7.34 -0.7,-3.17 -3.06,-3.94 -4.47,-3.94 v 0 c -1.59,0 -3.72,0.94 -4.42,3.8 -0.48,2.05 -0.48,4.91 -0.48,7.48 0,2.55 0,5.21 0.51,7.11 0.74,2.75 2.97,3.49 4.39,3.49 v 0.98 c -8.08,0 -8.08,-9.51 -8.08,-12.03 0,-2.5 0,-11.81 8.08,-11.81 8.09,0 8.09,9.31 8.09,11.81 z"
         inkscape:connector-curvature="0"
         style="fill:#000000;stroke-width:0" /></g>  </g>
  <g
     id="g3907"
     transform="matrix(1.4066393,0,0,1.4066393,-82.687778,52.276631)">
    <g
       word-spacing="normal"
       letter-spacing="normal"
       font-size-adjust="none"
       font-stretch="normal"
       font-weight="normal"
       font-variant="normal"
       font-style="normal"
       stroke-miterlimit="10.433"
       xml:space="preserve"
       transform="matrix(0.25714286,0,0,-0.25714286,-45,135)"
       id="g3905"
       style="font-style:normal;font-variant:normal;font-weight:normal;font-stretch:normal;letter-spacing:normal;word-spacing:normal;text-anchor:start;fill:none;fill-opacity:1;fill-rule:evenodd;stroke:#000000;stroke-linecap:butt;stroke-linejoin:miter;stroke-miterlimit:10.43299961;stroke-dasharray:none;stroke-dashoffset:0;stroke-opacity:1"><path
         id="path3901"
         d="m 479.68,426.68 -4.18,9.91 c -0.15,0.41 -0.25,0.59 -0.25,0.64 0,0.31 0.85,1.25 2.94,1.45 0.5,0.05 1,0.1 1,0.96 0,0.59 -0.61,0.59 -0.75,0.59 -2.05,0 -4.19,-0.16 -6.28,-0.16 -1.25,0 -4.33,0.16 -5.58,0.16 -0.29,0 -0.9,0 -0.9,-1 0,-0.55 0.5,-0.55 1.15,-0.55 2.99,0 3.28,-0.5 3.74,-1.59 l 5.87,-13.91 -10.51,-11.31 -0.64,-0.55 c -2.44,-2.64 -4.79,-3.43 -7.33,-3.57 -0.64,-0.05 -1.1,-0.05 -1.1,-1 0,-0.05 0,-0.55 0.66,-0.55 1.48,0 3.12,0.16 4.67,0.16 1.85,0 3.8,-0.16 5.58,-0.16 0.31,0 0.91,0 0.91,1 0,0.5 -0.5,0.55 -0.6,0.55 -0.45,0.04 -2,0.14 -2,1.54 0,0.8 0.75,1.6 1.35,2.24 l 5.07,5.39 4.49,4.87 5.03,-11.9 c 0.2,-0.55 0.25,-0.6 0.25,-0.71 0,-0.39 -0.94,-1.23 -2.89,-1.43 -0.55,-0.05 -0.99,-0.11 -0.99,-0.96 0,-0.59 0.55,-0.59 0.74,-0.59 1.41,0 4.89,0.16 6.28,0.16 1.25,0 4.28,-0.16 5.53,-0.16 0.35,0 0.95,0 0.95,0.95 0,0.6 -0.5,0.6 -0.9,0.6 -3.33,0.04 -3.44,0.2 -4.28,2.18 -1.94,4.64 -5.28,12.41 -6.42,15.39 3.39,3.5 8.6,9.43 10.2,10.82 1.45,1.2 3.34,2.39 6.33,2.54 0.65,0.05 1.09,0.05 1.09,1 0,0.05 0,0.55 -0.64,0.55 -1.5,0 -3.14,-0.16 -4.69,-0.16 -1.84,0 -3.73,0.16 -5.53,0.16 -0.3,0 -0.94,0 -0.94,-1 0,-0.34 0.25,-0.5 0.6,-0.55 0.45,-0.04 2,-0.15 2,-1.54 0,-0.71 -0.55,-1.35 -0.96,-1.8 z"
         inkscape:connector-curvature="0"
         style="fill:#000000;stroke-width:0" /><path
         id="path3903"
         d="m 508.47,420.92 v 0.04 0.04 0.05 0.04 0.03 0.04 0.04 0.03 0.04 0.03 l -0.01,0.03 v 0.03 0.03 l -0.01,0.03 v 0.03 0.02 l -0.01,0.03 v 0.02 l -0.01,0.03 v 0.02 l -0.01,0.04 -0.02,0.04 -0.02,0.03 -0.02,0.03 -0.02,0.03 -0.02,0.03 -0.03,0.02 -0.03,0.02 -0.03,0.02 -0.04,0.01 -0.04,0.01 -0.05,0.02 h -0.02 -0.02 l -0.03,0.01 H 508 l -0.02,0.01 h -0.03 -0.03 -0.03 -0.03 l -0.04,0.01 h -0.03 -0.04 -0.03 -0.04 -0.04 -0.04 -0.04 -0.04 -0.05 -0.04 c -2.24,-2.2 -5.39,-2.23 -6.83,-2.23 v -1.25 c 0.84,0 3.14,0 5.04,0.97 v -17.77 c 0,-1.16 0,-1.61 -3.48,-1.61 h -1.31 v -1.25 c 0.62,0.03 4.9,0.14 6.2,0.14 1.08,0 5.47,-0.11 6.23,-0.14 v 1.25 h -1.32 c -3.49,0 -3.49,0.45 -3.49,1.61 z"
         inkscape:connector-curvature="0"
         style="fill:#000000;stroke-width:0" /></g>  </g>
  <g
     id="g3951"
     transform="matrix(1.4066393,0,0,1.4066393,37.720942,52.276631)">
    <g
       word-spacing="normal"
       letter-spacing="normal"
       font-size-adjust="none"
       font-stretch="normal"
       font-weight="normal"
       font-variant="normal"
       font-style="normal"
       stroke-miterlimit="10.433"
       xml:space="preserve"
       transform="matrix(0.25714286,0,0,-0.25714286,-45,135)"
       id="g3949"
       style="font-style:normal;font-variant:normal;font-weight:normal;font-stretch:normal;letter-spacing:normal;word-spacing:normal;text-anchor:start;fill:none;fill-opacity:1;fill-rule:evenodd;stroke:#000000;stroke-linecap:butt;stroke-linejoin:miter;stroke-miterlimit:10.43299961;stroke-dasharray:none;stroke-dashoffset:0;stroke-opacity:1"><path
         id="path3945"
         d="m 479.68,426.68 -4.18,9.91 c -0.15,0.41 -0.25,0.59 -0.25,0.64 0,0.31 0.85,1.25 2.94,1.45 0.5,0.05 1,0.1 1,0.96 0,0.59 -0.61,0.59 -0.75,0.59 -2.05,0 -4.19,-0.16 -6.28,-0.16 -1.25,0 -4.33,0.16 -5.58,0.16 -0.29,0 -0.9,0 -0.9,-1 0,-0.55 0.5,-0.55 1.15,-0.55 2.99,0 3.28,-0.5 3.74,-1.59 l 5.87,-13.91 -10.51,-11.31 -0.64,-0.55 c -2.44,-2.64 -4.79,-3.43 -7.33,-3.57 -0.64,-0.05 -1.1,-0.05 -1.1,-1 0,-0.05 0,-0.55 0.66,-0.55 1.48,0 3.12,0.16 4.67,0.16 1.85,0 3.8,-0.16 5.58,-0.16 0.31,0 0.91,0 0.91,1 0,0.5 -0.5,0.55 -0.6,0.55 -0.45,0.04 -2,0.14 -2,1.54 0,0.8 0.75,1.6 1.35,2.24 l 5.07,5.39 4.49,4.87 5.03,-11.9 c 0.2,-0.55 0.25,-0.6 0.25,-0.71 0,-0.39 -0.94,-1.23 -2.89,-1.43 -0.55,-0.05 -0.99,-0.11 -0.99,-0.96 0,-0.59 0.55,-0.59 0.74,-0.59 1.41,0 4.89,0.16 6.28,0.16 1.25,0 4.28,-0.16 5.53,-0.16 0.35,0 0.95,0 0.95,0.95 0,0.6 -0.5,0.6 -0.9,0.6 -3.33,0.04 -3.44,0.2 -4.28,2.18 -1.94,4.64 -5.28,12.41 -6.42,15.39 3.39,3.5 8.6,9.43 10.2,10.82 1.45,1.2 3.34,2.39 6.33,2.54 0.65,0.05 1.09,0.05 1.09,1 0,0.05 0,0.55 -0.64,0.55 -1.5,0 -3.14,-0.16 -4.69,-0.16 -1.84,0 -3.73,0.16 -5.53,0.16 -0.3,0 -0.94,0 -0.94,-1 0,-0.34 0.25,-0.5 0.6,-0.55 0.45,-0.04 2,-0.15 2,-1.54 0,-0.71 -0.55,-1.35 -0.96,-1.8 z"
         inkscape:connector-curvature="0"
         style="fill:#000000;stroke-width:0" /><path
         id="path3947"
         d="m 514.4,405.11 h -1.19 c -0.1,-0.77 -0.46,-2.83 -0.91,-3.18 -0.27,-0.2 -2.95,-0.2 -3.44,-0.2 h -6.42 c 3.66,3.23 4.88,4.2 6.97,5.84 2.58,2.07 4.99,4.22 4.99,7.54 0,4.21 -3.69,6.79 -8.16,6.79 -4.31,0 -7.25,-3.03 -7.25,-6.23 0,-1.78 1.5,-1.96 1.86,-1.96 0.83,0 1.84,0.6 1.84,1.85 0,0.62 -0.25,1.84 -2.06,1.84 1.08,2.47 3.45,3.24 5.09,3.24 3.49,0 5.3,-2.71 5.3,-5.53 0,-3.04 -2.16,-5.44 -3.28,-6.69 l -8.39,-8.3 c -0.36,-0.31 -0.36,-0.39 -0.36,-1.36 h 14.36 z"
         inkscape:connector-curvature="0"
         style="fill:#000000;stroke-width:0" /></g>  </g>
  <g
     id="g3999"
     transform="matrix(1.3832898,0,0,1.3832898,-20.668472,112.55688)">
    <g
       word-spacing="normal"
       letter-spacing="normal"
       font-size-adjust="none"
       font-stretch="normal"
       font-weight="normal"
       font-variant="normal"
       font-style="normal"
       stroke-miterlimit="10.433"
       xml:space="preserve"
       transform="matrix(0.25714286,0,0,-0.25714286,-45,135)"
       id="g3997"
       style="font-style:normal;font-variant:normal;font-weight:normal;font-stretch:normal;letter-spacing:normal;word-spacing:normal;text-anchor:start;fill:none;fill-opacity:1;fill-rule:evenodd;stroke:#000000;stroke-linecap:butt;stroke-linejoin:miter;stroke-miterlimit:10.43299961;stroke-dasharray:none;stroke-dashoffset:0;stroke-opacity:1"><path
         id="path3993"
         d="m 479.68,426.68 -4.18,9.91 c -0.15,0.41 -0.25,0.59 -0.25,0.64 0,0.31 0.85,1.25 2.94,1.45 0.5,0.05 1,0.1 1,0.96 0,0.59 -0.61,0.59 -0.75,0.59 -2.05,0 -4.19,-0.16 -6.28,-0.16 -1.25,0 -4.33,0.16 -5.58,0.16 -0.29,0 -0.9,0 -0.9,-1 0,-0.55 0.5,-0.55 1.15,-0.55 2.99,0 3.28,-0.5 3.74,-1.59 l 5.87,-13.91 -10.51,-11.31 -0.64,-0.55 c -2.44,-2.64 -4.79,-3.43 -7.33,-3.57 -0.64,-0.05 -1.1,-0.05 -1.1,-1 0,-0.05 0,-0.55 0.66,-0.55 1.48,0 3.12,0.16 4.67,0.16 1.85,0 3.8,-0.16 5.58,-0.16 0.31,0 0.91,0 0.91,1 0,0.5 -0.5,0.55 -0.6,0.55 -0.45,0.04 -2,0.14 -2,1.54 0,0.8 0.75,1.6 1.35,2.24 l 5.07,5.39 4.49,4.87 5.03,-11.9 c 0.2,-0.55 0.25,-0.6 0.25,-0.71 0,-0.39 -0.94,-1.23 -2.89,-1.43 -0.55,-0.05 -0.99,-0.11 -0.99,-0.96 0,-0.59 0.55,-0.59 0.74,-0.59 1.41,0 4.89,0.16 6.28,0.16 1.25,0 4.28,-0.16 5.53,-0.16 0.35,0 0.95,0 0.95,0.95 0,0.6 -0.5,0.6 -0.9,0.6 -3.33,0.04 -3.44,0.2 -4.28,2.18 -1.94,4.64 -5.28,12.41 -6.42,15.39 3.39,3.5 8.6,9.43 10.2,10.82 1.45,1.2 3.34,2.39 6.33,2.54 0.65,0.05 1.09,0.05 1.09,1 0,0.05 0,0.55 -0.64,0.55 -1.5,0 -3.14,-0.16 -4.69,-0.16 -1.84,0 -3.73,0.16 -5.53,0.16 -0.3,0 -0.94,0 -0.94,-1 0,-0.34 0.25,-0.5 0.6,-0.55 0.45,-0.04 2,-0.15 2,-1.54 0,-0.71 -0.55,-1.35 -0.96,-1.8 z"
         inkscape:connector-curvature="0"
         style="fill:#000000;stroke-width:0" /><path
         id="path3995"
         d="m 506.32,410.4 h 0.25 l 0.25,-0.02 0.24,-0.03 0.24,-0.04 0.23,-0.05 0.23,-0.06 0.22,-0.07 0.21,-0.08 0.21,-0.1 0.2,-0.1 0.2,-0.12 0.19,-0.12 0.18,-0.14 0.18,-0.15 0.16,-0.16 0.16,-0.17 0.15,-0.18 0.15,-0.19 0.13,-0.2 0.13,-0.22 0.11,-0.22 0.11,-0.24 0.1,-0.24 0.09,-0.26 0.08,-0.27 0.07,-0.28 0.06,-0.29 0.05,-0.3 0.04,-0.31 0.03,-0.32 0.01,-0.33 0.01,-0.35 c 0,-4.33 -2.52,-5.61 -4.53,-5.61 -1.39,0 -4.47,0.38 -5.92,2.44 1.62,0.06 2.01,1.22 2.01,1.95 0,1.11 -0.84,1.91 -1.92,1.91 -0.97,0 -1.95,-0.59 -1.95,-2.02 0,-3.28 3.62,-5.4 7.84,-5.4 4.84,0 8.19,3.25 8.19,6.73 0,2.72 -2.22,5.44 -6.07,6.24 3.66,1.33 4.99,3.93 4.99,6.06 0,2.75 -3.17,4.81 -7.03,4.81 -3.88,0 -6.83,-1.89 -6.83,-4.67 0,-1.19 0.77,-1.84 1.81,-1.84 1.08,0 1.77,0.79 1.77,1.76 0,1.02 -0.69,1.75 -1.77,1.81 1.22,1.55 3.61,1.93 4.91,1.93 1.56,0 3.76,-0.77 3.76,-3.8 0,-1.47 -0.48,-3.06 -1.39,-4.14 -1.15,-1.33 -2.12,-1.41 -3.87,-1.5 -0.88,-0.08 -0.94,-0.08 -1.11,-0.11 -0.08,0 -0.36,-0.06 -0.36,-0.45 0,-0.49 0.31,-0.49 0.91,-0.49 z"
         inkscape:connector-curvature="0"
         style="fill:#000000;stroke-width:0" /></g>  </g>
</svg>
